<svg xmlns="http://www.w3.org/2000/svg" viewBox="0 0 1321.3 511.9">
    <path fill="#fff" d="M265 0c12 12.9 24 25.9 36.1 38.7 40 42.4 80.1 84.8 120.1 127.3 1.4 1.4 2.8 3.6 2.8 5.4.2 31 .1 62 .1 94-1.6-1.4-2.7-2.2-3.6-3.2C368.4 207.1 316.4 152 264.4 96.8c-1.8-1.9-3.1-5.2-3.1-7.8-.2-27.8-.1-55.7-.1-83.5 0-1.8-.1-3.7-.2-5.5h4zM482 484.8V240.4c1.3-.1 2.6-.3 3.8-.3 33.3 0 66.7-.3 100 .2 9.9.2 20 1.8 29.4 4.7 27.5 8.3 43.9 30.5 45.8 59.1 1.4 22.1-6.5 39.7-23.8 53.2-.8.6-1.5 1.3-2.4 2.1 1 .7 1.8 1.3 2.6 1.9 19.4 12.3 27.7 30.4 27.2 52.9-.9 40.2-26 67-66.1 69.9-16.2 1.2-32.6.7-49 .8-20.5.1-41 0-61.5 0-1.8-.1-3.6-.1-6-.1zm60.2-54c8.9 0 17.4.1 25.8 0 6.6-.1 13.4.2 19.9-.8 10.6-1.5 16.5-9.5 16.5-21 0-11.4-6.1-20.1-16.7-20.7-15-.9-30.1-.2-45.5-.2v42.7zm0-97.2c14 0 27.8.4 41.5-.2 7.9-.3 13.8-4.6 16.2-12.6 4.5-14.4-4-26.4-19.1-26.8-9.1-.2-18.3-.1-27.4-.1h-11.2v39.7zM327.9 500.6c-3.7-1.9-6.8-3.5-9.9-5.1C214 441.1 110 386.6 6 332.2c-2.4-1.3-4.4-2.2-4.4-5.7.1-29.8.1-59.7.1-89.5 0-.8.2-1.6.3-2.9 1.7.8 3.2 1.4 4.7 2.2 105.8 55.3 211.6 110.7 317.4 166 2.4 1.3 4.2 2.4 4.2 5.8-.2 29.7-.1 59.3-.1 89 0 .9-.1 1.7-.3 3.5zM384.7 394.9c-2.2-1.4-3.7-2.3-5.2-3.3-80.8-55-161.6-110.1-242.5-165.1-2.3-1.5-4-2.8-4-6.2.2-29.8.1-59.7.1-89.5 0-.8.1-1.6.2-3.1 2 1.2 3.5 2.1 4.9 3.1 81 55.1 161.9 110.3 242.9 165.4 2.3 1.6 3.8 3.1 3.8 6.3-.1 29.8-.1 59.7-.1 89.5.1.6 0 1.3-.1 2.9zM942.1 321c-12.8 12.9-25.3 25.3-37.9 38-2.1-1.7-4.3-3.7-6.7-5.3-15.2-10.6-34-4.6-39.3 13.2-4.8 16.1-4.8 32.7-.5 48.9 5.4 20.5 25.6 26.7 42.2 13.4 1.6-1.3 3-2.6 4.5-3.8 12.5 12.6 24.9 25.1 37.8 38.1-1.7 1.6-3.6 3.6-5.7 5.3-18.1 14.6-39.1 19.4-61.8 17.7-7.4-.6-14.9-1.9-22-4-25.1-7.6-41-24.8-48.3-49.7-7.8-26.6-7.9-53.7-.2-80.3 9.5-32.6 34.7-52.1 68.8-54.3 24.3-1.6 46.7 3.1 65.6 19.6 1.2 1 2.4 2.1 3.5 3.2zM693.1 350.3h-16.5v-43h16.3v-52.9h56.5V307h29v43.1h-28.6c-.1 2.2-.3 3.8-.3 5.4V423c0 11.4 2.8 14.2 14.2 14.2h14.8V484c-.2.1-.4.5-.6.5-13.3-.2-26.8.8-39.9-1.1-27.2-3.9-44.5-25-44.8-53-.3-24.7-.1-49.3-.1-74v-6.1zM1089.9 349.5v23.3H983.3v88.4h5.8c38 0 76 .1 114-.1 4.6 0 6.1 1.2 5.8 5.8-.4 5.6-.1 11.3-.1 17.4H957.2V240.2h151.3v22.9H983.4v86.4h106.5zM1215.2 382.2c-1.3 2.1-2.2 3.6-3.1 5.1-17.8 30.6-35.8 61.2-53.4 92-2.5 4.4-5.3 6-10.2 5.7-7.1-.4-14.3-.1-22.5-.1 1.2-2.2 2-3.9 3-5.5 22.9-38.4 45.9-76.9 69-115.3 2.2-3.7 2.1-6.2-.1-9.8-21.5-36.2-42.8-72.6-64.1-108.9-.9-1.5-1.7-3.1-3-5.4 9.9 0 19.1-.2 28.4.2 1.3 0 3 2.3 3.8 3.8 16.4 29 32.7 58 49 87 .9 1.6 1.8 3.1 3.1 5.2 1.2-1.9 2.1-3.4 3-4.9 16.3-29 32.7-58 48.9-87.1 1.7-3.1 3.5-4.5 7.3-4.4 8.1.3 16.2.1 25.3.1-1.2 2.2-2 3.7-2.9 5.2-21.6 36.5-43.1 73.1-64.8 109.6-2 3.3-2 5.6.1 8.9 23 37.8 45.8 75.8 68.6 113.8 1 1.7 1.1 3.8 1.7 5.8-1.9.5-3.8 1.4-5.8 1.5-5.7.2-11.3-.2-17 .2-3.5.2-5.3-1.1-7.1-4.1-17.7-30.9-35.6-61.7-53.4-92.5-1.2-1.8-2.3-3.7-3.8-6.1z"/>
</svg>
