<svg width="1080" height="415" viewBox="0 0 1080 415" fill="none" xmlns="http://www.w3.org/2000/svg">
<path d="M216 37.1998C216.1 64.0998 216.4 75.2998 217.3 77.1998C218.3 79.4998 237.8 100.4 305.6 172C310 176.7 321.9 189.2 332.1 199.9L350.5 219.3L350.8 181.4C350.9 160.5 350.8 142.6 350.6 141.5C350.3 140.4 348.6 137.9 346.7 136C343.1 132.2 317.3 104.8 290.5 76.4998C281.2 66.5998 266.5 50.9998 257.9 41.9998C249.4 32.8998 237 19.7998 230.5 12.6998C224 5.6998 218.1 -0.00019858 217.4 -0.00019858C216.2 -0.00019858 216 6.4998 216 37.1998Z" fill="#D3AB32"/>
<path d="M110 145.8V184.7L112.3 186.6C113.5 187.7 118.6 191.4 123.5 194.7C128.5 198 139.3 205.3 147.5 210.9C155.8 216.6 168.8 225.4 176.5 230.6C184.2 235.9 197.3 244.7 205.5 250.3C213.8 256 230.4 267.3 242.5 275.4C254.6 283.6 267.9 292.7 272 295.5C292.8 309.8 316.9 326 317.4 326C317.7 326 318 308.5 318 287.2V248.3L315.8 246.3C314.5 245.2 305.6 239 296 232.5C271.9 216.2 255.4 205 243 196.5C237.2 192.5 225.5 184.6 217 178.8C208.5 173 194.1 163.2 185 157C175.9 150.9 162.8 141.9 155.8 137.2C148.7 132.4 135.9 123.7 127.3 117.8C118.6 111.9 111.2 107 110.8 107C110.3 107 110 124.5 110 145.8Z" fill="#D3AB32"/>
<path d="M1.20014 234.2L1.50014 273.5L12.5001 279.3C18.6001 282.4 32.3001 289.6 43.0001 295.1C53.7001 300.7 65.2001 306.7 68.5001 308.5C71.8001 310.3 90.3001 320 109.5 330C156.3 354.4 166.2 359.6 188 371C198.2 376.3 212.1 383.6 219 387.2C225.9 390.8 237.8 397 245.5 401C253.2 405.1 261.9 409.6 264.9 411.2C267.9 412.7 270.4 414 270.6 414C270.8 414 271 396.5 271 375.2C271 339.4 270.9 336.2 269.3 334.8C267.5 333.3 259.1 328.7 234.5 316C214.9 305.8 199.8 297.9 176 285.5C164.7 279.6 149.9 271.8 143 268.3C127.7 260.3 93.1001 242.2 67.0001 228.5C56.3001 222.9 39.9001 214.3 30.5001 209.5C21.2001 204.7 11.2001 199.5 8.40014 197.9C5.60014 196.3 2.70014 195 2.10014 195C1.30014 195 1.00014 205.4 1.20014 234.2Z" fill="#D3AB32"/>
<path d="M399 299.9V400.8L405.8 401.5C417.6 402.7 495.1 401.1 503.2 399.6C513.5 397.6 521.1 394.5 527.7 389.6C542.9 378.4 550.8 360.5 549.8 339.2C548.9 320.7 542.3 309.3 526.1 298.3C525.9 298.2 528.9 294.7 532.8 290.6C543.4 279.4 547 270.7 547 255.9C547 245.5 545.6 239 541.6 230.6C532.9 212.5 517.4 202.8 492.7 200.1C487.4 199.5 464.4 199 441 199H399V299.9ZM490.3 245.9C497.7 250.4 499.9 259.7 495.8 268C491.9 275.7 489.5 276.4 467.8 276.8L449 277.2V260V242.8L467.8 243.2C485.4 243.5 486.7 243.6 490.3 245.9ZM491.7 323C505.6 329.3 502.8 353.2 487.8 356.1C485.4 356.5 475.7 356.9 466.3 357H449V339V321H468.3C485.1 321 488 321.3 491.7 323Z" fill="#D3AB32"/>
<path d="M793.7 199.7C793.3 200 793 245.5 793 300.7V401H856H919V392.5C919 385.2 918.7 383.9 917.1 383C915.8 382.4 897.5 382 864.6 382H814V345.5V309H858.5H903V299.5V290L859 289.8L814.9 289.5L814.7 253.7L814.5 218H866.3H918V208.5V199H856.2C822.2 199 794 199.3 793.7 199.7Z" fill="#D3AB32"/>
<path d="M938 199.4C938 199.7 950 220.3 964.7 245.2C996.5 299.2 995.1 296.6 994.1 299.4C993.6 300.5 979.9 323.8 963.6 351L933.9 400.5L943.7 401.2C950.4 401.6 954.3 401.5 956 400.7C958.4 399.5 960.5 396.2 974.5 372C996.8 333.3 1006.6 317 1007.4 317.3C1007.9 317.5 1018.5 335.4 1031.1 357C1043.6 378.7 1054.6 397.5 1055.5 398.8C1057.1 400.9 1057.7 401.1 1067.8 400.8C1078.1 400.5 1078.5 400.4 1078.3 398.3C1078.1 396.4 1060.8 367 1030.8 317.7C1024.9 307.9 1020 298.8 1020 297.5C1020 296.2 1023.5 289.1 1027.9 281.8C1036 267.9 1060.9 225.9 1069.9 210.8C1077.5 197.9 1078 199 1064.8 199C1055.1 199 1053.1 199.3 1051.8 200.7C1051 201.7 1045.9 210.4 1040.5 220C1019 258.6 1007.7 278.1 1006.9 277.8C1006.4 277.6 997.2 261.7 986.4 242.5C975.6 223.2 965.5 205.7 964.1 203.5L961.4 199.5L949.7 199.2C943.3 199.1 938 199.2 938 199.4Z" fill="#D3AB32"/>
<path d="M574 233V255H567.5H561V272.5V290H567.4H573.8L574.2 327.2C574.7 368.6 575 371.1 582 382C591 396 603.6 401 630.3 401H645L644.8 381.7L644.5 362.5L634.7 362C620.2 361.3 621 363.2 620.9 329.6C620.8 314.7 620.8 301.1 620.7 299.5C620.7 297.8 620.7 295 620.8 293.2L621 290H632.5H644V272V254H632H620V232.5V211H597H574V233Z" fill="#D3AB32"/>
<path d="M717.5 248C701 250.5 687.5 257.9 677.9 269.7C661.5 290.1 657.2 330.4 668.1 362C673.4 377.5 682.7 388.3 696.5 395C706.4 399.9 713.7 401.8 725.5 402.6C742.8 403.8 758.1 400.1 771 391.5C782 384.2 782.5 386 764.8 368.3L749.3 352.8L744.6 356.4C739.4 360.4 735.3 361.4 727.7 360.8C715.1 359.8 708 346.9 708 325.3C708 309 712 296.9 718.9 292.3C727 286.8 735.8 287.3 744.7 293.6L749.5 297L765 281.5L780.5 266L776.5 262.5C769.8 256.6 755.7 250.3 745.6 248.5C736.3 246.9 726 246.7 717.5 248Z" fill="#D3AB32"/>
</svg>
