<svg width="1080" height="415" viewBox="0 0 1080 415" fill="none" xmlns="http://www.w3.org/2000/svg">
<g clip-path="url(#clip0)">
<path fill-rule="evenodd" clip-rule="evenodd" d="M216 37.1998C216.1 64.0998 216.4 75.2998 217.3 77.1998C218.3 79.4998 237.8 100.4 305.6 172C310 176.7 321.9 189.2 332.1 199.9L350.5 219.3L350.8 181.4C350.9 160.5 350.8 142.6 350.6 141.5C350.3 140.4 348.6 137.9 346.7 136C345.705 134.95 343.014 132.096 339.074 127.919L339.028 127.87C328.704 116.924 309.863 96.9468 290.5 76.4998C281.2 66.5998 266.5 50.9998 257.9 41.9998C254.922 38.8114 251.465 35.1318 247.951 31.3914L247.945 31.3853C241.431 24.4523 234.721 17.3108 230.5 12.6998C224 5.69981 218.1 -0.000183105 217.4 -0.000183105C216.2 -0.000183105 216 6.49981 216 37.1998ZM110 145.8V184.7L112.3 186.6C113.5 187.7 118.6 191.4 123.5 194.7C128.5 198 139.3 205.3 147.5 210.9C155.8 216.6 168.8 225.4 176.5 230.6C180.895 233.625 187.049 237.79 193.047 241.85C197.558 244.903 201.98 247.896 205.5 250.3C213.8 256 230.4 267.3 242.5 275.4C252.904 282.45 264.194 290.166 269.762 293.971C270.67 294.591 271.425 295.107 272 295.5C292.8 309.8 316.9 326 317.4 326C317.7 326 318 308.5 318 287.2V248.3L315.8 246.3C314.5 245.2 305.6 239 296 232.5C271.9 216.2 255.4 205 243 196.5C239.563 194.13 234.054 190.39 228.368 186.529L228.363 186.526C224.455 183.873 220.462 181.162 217 178.8C211.393 174.974 203.219 169.408 195.692 164.282L195.689 164.28C191.807 161.636 188.096 159.11 185 157C180.03 153.669 173.868 149.473 168.157 145.584L168.15 145.579L168.147 145.577C163.404 142.348 158.975 139.332 155.8 137.2C148.7 132.4 135.9 123.7 127.3 117.8C118.6 111.9 111.2 107 110.8 107C110.3 107 110 124.5 110 145.8ZM1.50014 273.5L1.20014 234.2C1.00014 205.4 1.30014 195 2.10014 195C2.70014 195 5.60014 196.3 8.40014 197.9C11.2001 199.5 21.2001 204.7 30.5001 209.5C38.9113 213.795 52.9272 221.133 63.4489 226.641C64.6858 227.289 65.8745 227.911 67.0001 228.5C93.1001 242.2 127.7 260.3 143 268.3C147.887 270.779 156.738 275.415 165.501 280.006C169.11 281.896 172.704 283.779 176 285.5C186.721 291.086 195.677 295.758 204.073 300.139C214.317 305.484 223.729 310.395 234.5 316C259.1 328.7 267.5 333.3 269.3 334.8C270.9 336.2 271 339.4 271 375.2C271 396.5 270.8 414 270.6 414C270.455 414 269.096 413.314 267.214 412.364C266.505 412.006 265.721 411.611 264.9 411.2C263.716 410.569 261.646 409.486 259.099 408.155C255.191 406.112 250.162 403.482 245.5 401C237.8 397 225.9 390.8 219 387.2C216.528 385.911 213.159 384.146 209.383 382.169C202.617 378.627 194.546 374.402 188 371C183.708 368.756 179.877 366.751 176.135 364.794C160.871 356.808 147.086 349.596 109.5 330C90.3001 320 71.8001 310.3 68.5001 308.5C65.7662 307.009 57.4044 302.635 48.532 297.994C46.6948 297.033 44.8357 296.061 43.0001 295.1C37.7689 292.411 31.8207 289.316 26.394 286.492C20.7209 283.54 15.6178 280.884 12.5001 279.3L1.50014 273.5Z" fill="url(#paint0_linear)"/>
<path fill-rule="evenodd" clip-rule="evenodd" d="M964.7 245.2C950 220.3 938 199.7 938 199.4C938 199.2 943.3 199.1 949.7 199.2L961.4 199.5L964.1 203.5C965.5 205.7 975.6 223.2 986.4 242.5C997.2 261.7 1006.4 277.6 1006.9 277.8C1007.7 278.1 1019 258.6 1040.5 220C1045.9 210.4 1051 201.7 1051.8 200.7C1053.1 199.3 1055.1 199 1064.8 199C1065.84 199 1066.8 198.993 1067.68 198.987C1072.17 198.955 1074.49 198.938 1075.09 199.944C1075.73 201.023 1074.38 203.277 1071.6 207.946L1071.6 207.947L1071.59 207.951C1071.08 208.816 1070.51 209.763 1069.9 210.8C1060.9 225.9 1036 267.9 1027.9 281.8C1023.5 289.1 1020 296.2 1020 297.5C1020 298.8 1024.9 307.9 1030.8 317.7C1060.8 367 1078.1 396.4 1078.3 398.3C1078.5 400.4 1078.1 400.5 1067.8 400.8C1057.7 401.1 1057.1 400.9 1055.5 398.8C1054.6 397.5 1043.6 378.7 1031.1 357C1018.5 335.4 1007.9 317.5 1007.4 317.3C1006.6 317 996.8 333.3 974.5 372C960.5 396.2 958.4 399.5 956 400.7C954.3 401.5 950.4 401.6 943.7 401.2L933.9 400.5L963.6 351C979.9 323.8 993.6 300.5 994.1 299.4C994.144 299.278 994.188 299.166 994.231 299.059C994.288 298.915 994.341 298.781 994.384 298.643C995.004 296.65 993.427 293.972 968.989 252.482C967.631 250.177 966.203 247.752 964.7 245.2ZM399 299.9V400.8L405.8 401.5C417.6 402.7 495.1 401.1 503.2 399.6C513.5 397.6 521.1 394.5 527.7 389.6C542.9 378.4 550.8 360.5 549.8 339.2C548.9 320.7 542.3 309.3 526.1 298.3C525.9 298.2 528.9 294.7 532.8 290.6C543.4 279.4 547 270.7 547 255.9C547 245.5 545.6 239 541.6 230.6C532.9 212.5 517.4 202.8 492.7 200.1C487.4 199.5 464.4 199 441 199H399V299.9ZM490.3 245.9C497.7 250.4 499.9 259.7 495.8 268C491.9 275.7 489.5 276.4 467.8 276.8L449 277.2V260V242.8L467.8 243.2C485.4 243.5 486.7 243.6 490.3 245.9ZM491.7 323C505.6 329.3 502.8 353.2 487.8 356.1C485.4 356.5 475.7 356.9 466.3 357H449V339V321H468.3C485.1 321 488 321.3 491.7 323ZM793.7 199.7C793.3 200 793 245.5 793 300.7V401H856H919V392.5C919 385.2 918.7 383.9 917.1 383C915.8 382.4 897.5 382 864.6 382H814V345.5V309H858.5H903V299.5V290L859 289.8L814.9 289.5L814.7 253.7L814.5 218H866.3H918V208.5V199H856.2C822.2 199 794 199.3 793.7 199.7ZM574 233V255H567.5H561V272.5V290H567.4H573.8L574.2 327.2C574.7 368.6 575 371.1 582 382C591 396 603.6 401 630.3 401H645L644.8 381.7L644.5 362.5L634.7 362C633.937 361.963 633.216 361.934 632.535 361.906C628.348 361.733 625.675 361.623 623.967 360.284C620.95 357.918 620.939 351.718 620.911 334.568C620.908 333.005 620.905 331.35 620.9 329.6C620.862 323.874 620.838 318.34 620.818 313.605V313.605C620.785 306.019 620.762 300.485 620.7 299.5V299.498C620.7 297.798 620.7 294.999 620.8 293.2L621 290H632.5H644V272V254H632H620V232.5V211H597H574V233ZM677.9 269.7C687.5 257.9 701 250.5 717.5 248C726 246.7 736.3 246.9 745.6 248.5C755.7 250.3 769.8 256.6 776.5 262.5L780.5 266L765 281.5L749.5 297L744.7 293.6C735.8 287.3 727 286.8 718.9 292.3C712 296.9 708 309 708 325.3C708 346.9 715.1 359.8 727.7 360.8C735.3 361.4 739.4 360.4 744.6 356.4L749.3 352.8L764.8 368.3C775.148 378.648 779.275 382.331 778.721 385.064C778.327 387.006 775.569 388.468 771 391.5C758.1 400.1 742.8 403.8 725.5 402.6C713.7 401.8 706.4 399.9 696.5 395C682.7 388.3 673.4 377.5 668.1 362C657.2 330.4 661.5 290.1 677.9 269.7Z" fill="url(#paint1_linear)"/>
</g>
<defs>
<linearGradient id="paint0_linear" x1="127.91" y1="164.555" x2="339.148" y2="235.431" gradientUnits="userSpaceOnUse">
<stop stop-color="#D3AB32"/>
<stop offset="0.498264" stop-color="#F9EFC7"/>
<stop offset="1" stop-color="#D3AB32"/>
</linearGradient>
<linearGradient id="paint1_linear" x1="817.212" y1="229.872" x2="687.968" y2="429.992" gradientUnits="userSpaceOnUse">
<stop stop-color="#D3AB32"/>
<stop offset="0.514716" stop-color="#F9EEC5"/>
<stop offset="1" stop-color="#D3AB32"/>
</linearGradient>
<clipPath id="clip0">
<rect width="1080" height="415" fill="white"/>
</clipPath>
</defs>
</svg>
